<?xml version="1.0" encoding="utf-8"?>
<!-- Generator: Adobe Illustrator 27.2.0, SVG Export Plug-In . SVG Version: 6.00 Build 0)  -->
<svg version="1.1" id="Слой_1" xmlns="http://www.w3.org/2000/svg" xmlns:xlink="http://www.w3.org/1999/xlink" x="0px" y="0px"
	 viewBox="0 0 587.2 176" style="enable-background:new 0 0 587.2 176;" xml:space="preserve">
<style type="text/css">
	.st0{fill-rule:evenodd;clip-rule:evenodd;fill:#FFFFFF;}
	.st1{fill:#FFFFFF;}
</style>
<g>
	<g>
		<path class="st0" d="M80.9,0.1c-0.4-1-2.3,9.2-16.3,19.7c-14.2,10.4-3.3,25.6-3.5,25c-0.2-0.4,0.6-11.6,14-19.2
			C87.6,14.7,83.3,5.1,80.9,0.1L80.9,0.1z M87.7,2.7C94.3,6,114.5,25,98.2,39.4c-15.9,13-11.7,29.4-13,30.9s-24.3-26-7.3-40.6
			C94.8,15,85.2,1.4,87.7,2.7z M107.9,17.4c9.6,5,30,29.9,11.7,45.6c-14,11.6-22.7,22.7-23.6,26c-1.5-4.9-10-28.8,4-42.7
			C116.1,30.3,107.1,17,107.9,17.4L107.9,17.4z M65.6,44.7c0.2,4.9,2.7,14,15.1,26.8C93.2,84.4,84.3,95,84.3,95s-2.1-7-14.8-15.5
			C58.4,70.2,65.6,44.7,65.6,44.7z"/>
		<path class="st0" d="M0.2,153.5h190l-0.4-1.4H0.6L0.2,153.5z"/>
		<path class="st0" d="M147.1,126.4l5.6-25.6c6.1,0,19.6-1.7,21.7,4.2l14.1,41.5l-22.7-0.2l-8.7-35.9l-6.4,36h-13.1L118,114
			l3.1,32.5h-6.7l-4.2-45.6c6.3,0,13.8-0.3,20-0.3L147.1,126.4z"/>
		<path class="st0" d="M99.2,100.6l2.7,46H77.6l1.8-45.8L99.2,100.6z"/>
		<path class="st0" d="M42.9,146.8c-1-12,6-21.5-4-22.7c-2.3-0.4-4.9-0.6-7.3-0.8l-4.4,23.5H4.9c-0.4,0-1.1-0.2-1.5-0.3
			c-0.4-0.2-0.8-0.4-1-1c-0.2-0.3-0.3-0.8-0.3-1.3l13.8-39.6c1.8-5,18.6-3.9,27.5-4c8.3,0,15.4,0.6,20,2.9c4.3,2.3,5.7,5.3,5.6,8.7
			c0,1.3-0.3,2.7-1.1,3.8s-1.8,2.1-3.1,2.7c-2.9,1.5-4.4,2.1-13.1,3.3c8.5,1.5,10.2,2.1,11.6,4.2c2.9,4.3-0.4,14.6,2.7,20.6H42.9
			L42.9,146.8z M35.8,105C35.6,105,35.6,105,35.8,105c-1,2.7-3.1,13.1-3.5,14.6c0,0.2,0.2,0.2,0.3,0.2c2.9,0.2,7.4,0.2,9.6-0.4
			c7.7-2.1,7.9-8.8,5.4-12.1C45.8,104.3,38.4,104.5,35.8,105z"/>
		<path class="st0" d="M25.4,162.2H6.3v10.6h19.2v-3.6h-9.9v-2.9h15.9v6c0,0.6,0,1.3-0.3,1.7c-0.3,0.6-0.6,1.1-1.1,1.4
			c-1,0.6-2.7,0.8-5.2,0.8H6.7c-2.5,0-4.2-0.3-5.2-0.8c-0.4-0.3-1-0.8-1.1-1.4c-0.3-0.6-0.3-1.1-0.3-1.7v-8.9
			c-0.2-0.6,0-1.3,0.3-1.7c0.3-0.6,0.6-1.1,1.1-1.4c1-0.6,2.7-0.8,5.2-0.8h18.1c2.5,0,4.2,0.3,5.2,0.8c0.4,0.3,0.8,0.8,1.1,1.3
			c0.3,0.4,0.3,1.1,0.3,1.7v0.4l-6,0.6V162.2L25.4,162.2z M61.7,162.1h-14v4.8h14c0.8,0,1.4,0,2.3-0.3c0.2-0.2,0.3-0.3,0.4-0.4
			c0.2-0.2,0.2-0.4,0.2-0.6v-2.1c0-0.2,0-0.4-0.2-0.6s-0.3-0.3-0.4-0.4C63.1,162.1,62.5,162.1,61.7,162.1L61.7,162.1z M41.6,176.2
			v-17.1h22.5c1.5-0.2,3.1,0.2,4.4,0.8c0.4,0.3,0.8,0.6,1.1,1.1c0.3,0.4,0.3,1,0.3,1.4v4c0,0.4-0.2,1-0.3,1.4
			c-0.3,0.4-0.6,0.8-1.1,1.1c-1.4,0.6-2.9,1-4.4,0.8h-3.5l11.9,6.4h-8.8l-10.5-6.4h-5.7v6.4L41.6,176.2L41.6,176.2L41.6,176.2z
			 M85.6,172.9h20.2v-10.7H85.6V172.9z M79.8,163.2c0-0.6,0-1.3,0.3-1.7c0.2-0.6,0.6-1.1,1.1-1.4c1-0.6,2.7-0.8,5.2-0.8h19.2
			c2.7,0,4.2,0.3,5.2,0.8c0.4,0.3,0.8,1,1.1,1.4c0.2,0.6,0.3,1.1,0.2,1.7v8.9c0,0.6,0,1.3-0.3,1.7c-0.3,0.6-0.6,1.1-1.1,1.4
			c-1,0.6-2.7,0.8-5.2,0.8H86.3c-2.5,0-4.2-0.3-5.2-0.8c-0.4-0.3-0.8-1-1.1-1.4c-0.2-0.6-0.3-1.1-0.3-1.7L79.8,163.2L79.8,163.2z
			 M128.5,159.1v14h17.3v-14h6.1v13c0,0.6,0,1.3-0.3,1.7s-0.6,1.1-1.1,1.4c-1,0.6-2.7,0.8-5.2,0.8h-16.6c-2.5,0-4.2-0.3-5.2-0.8
			c-0.4-0.3-1-0.8-1.1-1.4c-0.3-0.6-0.3-1.3-0.3-1.7v-13H128.5L128.5,159.1z M163.3,176.2v-17.1h22.5c1.5-0.2,3.1,0.2,4.4,0.8
			c0.4,0.3,0.8,0.6,1.1,1.1c0.3,0.4,0.3,1,0.3,1.4v3.8c0,0.4,0,1-0.3,1.4s-0.6,0.8-1.1,1.1c-1.4,0.6-2.9,1-4.4,0.8h-16.6v6.7H163.3z
			 M183.1,162.1h-14v4.4h14c0.8,0,1.4,0,2.3-0.3c0.2-0.2,0.3-0.3,0.4-0.4s0.2-0.4,0.2-0.6v-1.8c0-0.2,0-0.4-0.2-0.6
			s-0.3-0.3-0.4-0.4C184.8,162.1,184,162.1,183.1,162.1L183.1,162.1z"/>
	</g>
	<rect x="222.7" y="29.1" class="st1" width="2.8" height="147.2"/>
</g>
<g>
	<path class="st1" d="M261.9,132.4V86.7h21.2c5.3,0,9.3,1.4,12,4.1c2.1,2.1,3.1,4.7,3.1,7.9c0,4.3-2,7.6-6,9.9
		c2.8,1.1,5,2.5,6.4,4.3c1.4,1.8,2.2,4.1,2.2,7.1c0,4.1-1.5,7.2-4.6,9.3c-3.1,2.1-7.2,3.2-12.5,3.2H261.9z M271.7,105.2h9.3
		c4.8,0,7.3-1.7,7.3-5c0-1.5-0.6-2.7-1.7-3.5c-1.1-0.8-2.8-1.2-4.9-1.2h-9.9V105.2z M271.7,123.6h12c4.7,0,7.1-1.7,7.1-5.1
		c0-3.3-2.5-5-7.5-5h-11.6V123.6z"/>
	<path class="st1" d="M328.2,133.1c-6.2,0-11.1-1.7-14.6-5.2c-3.5-3.5-5.2-8.5-5.2-15.1V86.7h10.1v25.9c0,3.7,0.9,6.5,2.6,8.4
		c1.7,1.9,4.2,2.9,7.3,2.9c3.1,0,5.6-0.9,7.3-2.8c1.7-1.9,2.6-4.6,2.6-8.2V86.7h10.1v25.8c0,6.8-1.8,11.9-5.3,15.4
		C339.4,131.4,334.4,133.1,328.2,133.1z"/>
	<path class="st1" d="M359,132.4V86.7H369v45.8H359z"/>
	<path class="st1" d="M380.5,132.4V86.7h10.1v36.6h22.8v9.2H380.5z"/>
	<path class="st1" d="M420.9,132.4V86.7h17.8c7.1,0,13,2.2,17.5,6.5c4.5,4.3,6.8,9.8,6.8,16.4c0,6.5-2.3,12-6.8,16.3
		c-4.6,4.4-10.4,6.5-17.5,6.5H420.9z M431,123.3h7.8c4.1,0,7.5-1.3,10-3.8c2.5-2.5,3.8-5.9,3.8-10c0-4.1-1.3-7.4-3.8-9.9
		c-2.5-2.6-5.9-3.9-10-3.9H431V123.3z"/>
	<path class="st1" d="M472.5,132.4V86.7h10.1v45.8H472.5z"/>
	<path class="st1" d="M494,132.4V86.7h9.3l21.4,28.2V86.7h9.9v45.8h-8.6l-22.2-29.1v29.1H494z"/>
	<path class="st1" d="M567.7,133.2c-7.1,0-12.9-2.2-17.4-6.7c-4.5-4.4-6.7-10.1-6.7-17c0-6.6,2.3-12.2,6.9-16.8
		c4.6-4.6,10.3-6.9,17.1-6.9c4,0,7.3,0.5,10.1,1.5c2.7,1,5.4,2.6,7.9,4.7l-6.3,7.6c-1.9-1.6-3.8-2.8-5.6-3.5
		c-1.8-0.7-3.9-1.1-6.4-1.1c-3.7,0-6.8,1.4-9.3,4.2c-2.5,2.8-3.8,6.2-3.8,10.2c0,4.2,1.3,7.6,3.9,10.4c2.6,2.7,5.9,4.1,10,4.1
		c3.7,0,6.9-0.9,9.5-2.7v-6.5h-10.1v-8.7h19.9v19.9C581.5,130.8,575,133.2,567.7,133.2z"/>
</g>
</svg>
