<?xml version="1.0" encoding="utf-8"?>
<!-- Generator: Adobe Illustrator 27.2.0, SVG Export Plug-In . SVG Version: 6.00 Build 0)  -->
<svg version="1.1" id="Слой_1" xmlns="http://www.w3.org/2000/svg" xmlns:xlink="http://www.w3.org/1999/xlink" x="0px" y="0px"
	 viewBox="0 0 200 184.1" style="enable-background:new 0 0 200 184.1;" xml:space="preserve">
<style type="text/css">
	.st0{fill-rule:evenodd;clip-rule:evenodd;fill:#E2752B;}
</style>
<path class="st0" d="M84.4,0.1C83.9-1,82,9.7,67.3,20.6c-14.9,10.8-3.5,26.7-3.6,26.1c-0.1-0.4,0.6-12.1,14.6-20
	C91.4,15.4,86.8,5.3,84.4,0.1L84.4,0.1z M91.5,2.8c6.9,3.5,28,23.3,10.9,38.4C85.8,54.8,90.2,71.8,88.9,73.4S63.5,46.3,81.3,31
	C98.9,15.7,88.9,1.5,91.5,2.8z M112.5,18.2c10.1,5.3,31.4,31.2,12.3,47.5c-14.6,12.1-23.6,23.6-24.6,27.1c-1.6-5.1-10.5-30,4.2-44.6
	C121.1,31.6,111.8,17.7,112.5,18.2L112.5,18.2z M68.3,46.6c0.1,5.1,2.8,14.6,15.8,28s3.8,24.5,3.8,24.5s-2.2-7.3-15.5-16.2
	C60.9,73.3,68.3,46.6,68.3,46.6z"/>
<path class="st0" d="M0.1,160.2h198.3l-0.4-1.5H0.5L0.1,160.2z"/>
<path class="st0" d="M153.5,132.1l5.8-26.7c6.4,0,20.4-1.8,22.6,4.4l14.7,43.3L173,153l-9-37.5l-6.7,37.6h-13.7l-20.4-33.8l3.2,34
	h-7l-4.4-47.5c6.6,0,14.4-0.3,20.9-0.3L153.5,132.1z"/>
<path class="st0" d="M103.5,105.1l2.8,48H80.9l1.9-47.8L103.5,105.1z"/>
<path class="st0" d="M44.7,153.2c-1-12.5,6.3-22.5-4.2-23.6c-2.5-0.4-5.1-0.6-7.6-0.9l-4.7,24.5H5c-0.4,0-1.2-0.1-1.6-0.3
	c-0.4-0.1-0.9-0.4-1-1c-0.1-0.3-0.3-0.9-0.3-1.3l14.4-41.3c1.9-5.3,19.4-4.1,28.7-4.2c8.6,0,16,0.6,20.9,3.1c4.5,2.3,6,5.5,5.8,9
	c0,1.3-0.3,2.8-1.2,3.9c-0.9,1.2-1.9,2.2-3.2,2.8c-3.1,1.6-4.7,2.2-13.7,3.5c8.9,1.6,10.6,2.2,12.1,4.4c3.1,4.5-0.4,15.2,2.8,21.4
	L44.7,153.2L44.7,153.2z M37.2,109.6C37.1,109.6,37.1,109.6,37.2,109.6c-1,2.8-3.2,13.7-3.6,15.3c0,0.1,0.1,0.1,0.3,0.1
	c3.1,0.1,7.7,0.1,10.1-0.4c8-2.2,8.3-9.2,5.7-12.7C47.7,108.9,40,109.2,37.2,109.6z"/>
<path class="st0" d="M26.5,169.4h-20v11.1h20v-3.8H16.1v-3.1h16.6v6.3c0,0.6,0,1.3-0.3,1.8c-0.3,0.6-0.6,1.2-1.2,1.5
	c-1,0.6-2.8,0.9-5.4,0.9h-19c-2.6,0-4.4-0.3-5.4-0.9c-0.4-0.3-1-0.9-1.2-1.5c-0.3-0.6-0.3-1.2-0.3-1.8v-9.3c-0.1-0.6,0-1.3,0.3-1.8
	c0.3-0.6,0.6-1.2,1.2-1.5c1-0.6,2.8-0.9,5.4-0.9h19c2.6,0,4.4,0.3,5.4,0.9c0.4,0.3,0.9,0.9,1.2,1.3c0.3,0.4,0.3,1.2,0.3,1.8v0.4
	l-6.3,0.6L26.5,169.4L26.5,169.4z M64.4,169.2H49.8v5h14.6c0.9,0,1.5,0,2.3-0.3c0.1-0.1,0.3-0.3,0.4-0.4c0.1-0.1,0.1-0.4,0.1-0.6
	v-2.2c0-0.1,0-0.4-0.1-0.6c-0.1-0.1-0.3-0.3-0.4-0.4C65.8,169.2,65.1,169.2,64.4,169.2L64.4,169.2z M43.4,184v-17.8h23.5
	c1.6-0.1,3.2,0.1,4.7,0.9c0.4,0.3,0.9,0.6,1.2,1.2c0.3,0.4,0.3,1,0.3,1.5v4.2c0,0.4-0.1,1-0.3,1.5c-0.3,0.4-0.6,0.9-1.2,1.2
	c-1.5,0.6-3.1,1-4.7,0.9h-3.6l12.4,6.7h-9.2l-10.9-6.7h-6v6.7h-6.1V184H43.4z M89.3,180.5h21.1v-11.1H89.3V180.5z M83.2,170.4
	c0-0.6,0-1.3,0.3-1.8c0.1-0.6,0.6-1.2,1.2-1.5c1-0.6,2.8-0.9,5.4-0.9h20c2.8,0,4.4,0.3,5.4,0.9c0.4,0.3,0.9,1,1.2,1.5
	c0.1,0.6,0.3,1.2,0.1,1.8v9.3c0,0.6,0,1.3-0.3,1.8c-0.3,0.6-0.6,1.2-1.2,1.5c-1,0.6-2.8,0.9-5.4,0.9h-20c-2.6,0-4.4-0.3-5.4-0.9
	c-0.4-0.3-0.9-1-1.2-1.5c-0.1-0.6-0.3-1.2-0.3-1.8v-9.3H83.2z M134.1,166v14.6h18.1V166h6.4v13.6c0,0.6,0,1.3-0.3,1.8
	s-0.6,1.2-1.2,1.5c-1,0.6-2.8,0.9-5.4,0.9h-17.4c-2.6,0-4.4-0.3-5.4-0.9c-0.4-0.3-1-0.9-1.2-1.5c-0.3-0.6-0.3-1.3-0.3-1.8V166H134.1
	L134.1,166z M170.4,184v-17.8h23.5c1.6-0.1,3.2,0.1,4.7,0.9c0.4,0.3,0.9,0.6,1.2,1.2c0.3,0.4,0.3,1,0.3,1.5v3.9c0,0.4,0,1-0.3,1.5
	s-0.6,0.9-1.2,1.2c-1.5,0.6-3.1,1-4.7,0.9h-17.4v7L170.4,184z M191.1,169.2h-14.6v4.7h14.6c0.9,0,1.5,0,2.3-0.3
	c0.1-0.1,0.3-0.3,0.4-0.4c0.1-0.1,0.1-0.4,0.1-0.6v-1.9c0-0.1,0-0.4-0.1-0.6c-0.1-0.1-0.3-0.3-0.4-0.4
	C192.9,169.2,192,169.2,191.1,169.2L191.1,169.2z"/>
</svg>
