<?xml version="1.0" encoding="utf-8"?>
<!-- Generator: Adobe Illustrator 27.2.0, SVG Export Plug-In . SVG Version: 6.00 Build 0)  -->
<svg version="1.1" id="Слой_1" xmlns="http://www.w3.org/2000/svg" xmlns:xlink="http://www.w3.org/1999/xlink" x="0px" y="0px"
	 viewBox="0 0 543.2 176" style="enable-background:new 0 0 543.2 176;" xml:space="preserve">
<style type="text/css">
	.st0{fill-rule:evenodd;clip-rule:evenodd;fill:#FFFFFF;}
	.st1{fill:#FFFFFF;}
</style>
<g>
	<g>
		<path class="st0" d="M80.9,0.1c-0.4-1-2.3,9.2-16.3,19.7c-14.2,10.4-3.3,25.6-3.5,25c-0.2-0.4,0.6-11.6,14-19.2
			C87.6,14.7,83.3,5.1,80.9,0.1L80.9,0.1z M87.7,2.7C94.3,6,114.5,25,98.2,39.4c-15.9,13-11.7,29.4-13,30.9s-24.3-26-7.3-40.6
			C94.8,15,85.2,1.4,87.7,2.7z M107.9,17.4c9.6,5,30,29.9,11.7,45.6c-14,11.6-22.7,22.7-23.6,26c-1.5-4.9-10-28.8,4-42.7
			C116.1,30.3,107.1,17,107.9,17.4L107.9,17.4z M65.6,44.7c0.2,4.9,2.7,14,15.1,26.8C93.2,84.4,84.3,95,84.3,95s-2.1-7-14.8-15.5
			C58.4,70.2,65.6,44.7,65.6,44.7z"/>
		<path class="st0" d="M0.2,153.5h190l-0.4-1.4H0.6L0.2,153.5z"/>
		<path class="st0" d="M147.1,126.4l5.6-25.6c6.1,0,19.6-1.7,21.7,4.2l14.1,41.5l-22.7-0.2l-8.7-35.9l-6.4,36h-13.1L118,114
			l3.1,32.5h-6.7l-4.2-45.6c6.3,0,13.8-0.3,20-0.3L147.1,126.4z"/>
		<path class="st0" d="M99.2,100.6l2.7,46H77.6l1.8-45.8L99.2,100.6z"/>
		<path class="st0" d="M42.9,146.8c-1-12,6-21.5-4-22.7c-2.3-0.4-4.9-0.6-7.3-0.8l-4.4,23.5H4.9c-0.4,0-1.1-0.2-1.5-0.3
			c-0.4-0.2-0.8-0.4-1-1c-0.2-0.3-0.3-0.8-0.3-1.3l13.8-39.6c1.8-5,18.6-3.9,27.5-4c8.3,0,15.4,0.6,20,2.9c4.3,2.3,5.7,5.3,5.6,8.7
			c0,1.3-0.3,2.7-1.1,3.8s-1.8,2.1-3.1,2.7c-2.9,1.5-4.4,2.1-13.1,3.3c8.5,1.5,10.2,2.1,11.6,4.2c2.9,4.3-0.4,14.6,2.7,20.6H42.9
			L42.9,146.8z M35.8,105C35.6,105,35.6,105,35.8,105c-1,2.7-3.1,13.1-3.5,14.6c0,0.2,0.2,0.2,0.3,0.2c2.9,0.2,7.4,0.2,9.6-0.4
			c7.7-2.1,7.9-8.8,5.4-12.1C45.8,104.3,38.4,104.5,35.8,105z"/>
		<path class="st0" d="M25.4,162.2H6.3v10.6h19.2v-3.6h-9.9v-2.9h15.9v6c0,0.6,0,1.3-0.3,1.7c-0.3,0.6-0.6,1.1-1.1,1.4
			c-1,0.6-2.7,0.8-5.2,0.8H6.7c-2.5,0-4.2-0.3-5.2-0.8c-0.4-0.3-1-0.8-1.1-1.4c-0.3-0.6-0.3-1.1-0.3-1.7v-8.9
			c-0.2-0.6,0-1.3,0.3-1.7c0.3-0.6,0.6-1.1,1.1-1.4c1-0.6,2.7-0.8,5.2-0.8h18.1c2.5,0,4.2,0.3,5.2,0.8c0.4,0.3,0.8,0.8,1.1,1.3
			c0.3,0.4,0.3,1.1,0.3,1.7v0.4l-6,0.6V162.2L25.4,162.2z M61.7,162.1h-14v4.8h14c0.8,0,1.4,0,2.3-0.3c0.2-0.2,0.3-0.3,0.4-0.4
			c0.2-0.2,0.2-0.4,0.2-0.6v-2.1c0-0.2,0-0.4-0.2-0.6s-0.3-0.3-0.4-0.4C63.1,162.1,62.5,162.1,61.7,162.1L61.7,162.1z M41.6,176.2
			v-17.1h22.5c1.5-0.2,3.1,0.2,4.4,0.8c0.4,0.3,0.8,0.6,1.1,1.1c0.3,0.4,0.3,1,0.3,1.4v4c0,0.4-0.2,1-0.3,1.4
			c-0.3,0.4-0.6,0.8-1.1,1.1c-1.4,0.6-2.9,1-4.4,0.8h-3.5l11.9,6.4h-8.8l-10.5-6.4h-5.7v6.4L41.6,176.2L41.6,176.2L41.6,176.2z
			 M85.6,172.9h20.2v-10.7H85.6V172.9z M79.8,163.2c0-0.6,0-1.3,0.3-1.7c0.2-0.6,0.6-1.1,1.1-1.4c1-0.6,2.7-0.8,5.2-0.8h19.2
			c2.7,0,4.2,0.3,5.2,0.8c0.4,0.3,0.8,1,1.1,1.4c0.2,0.6,0.3,1.1,0.2,1.7v8.9c0,0.6,0,1.3-0.3,1.7c-0.3,0.6-0.6,1.1-1.1,1.4
			c-1,0.6-2.7,0.8-5.2,0.8H86.3c-2.5,0-4.2-0.3-5.2-0.8c-0.4-0.3-0.8-1-1.1-1.4c-0.2-0.6-0.3-1.1-0.3-1.7L79.8,163.2L79.8,163.2z
			 M128.5,159.1v14h17.3v-14h6.1v13c0,0.6,0,1.3-0.3,1.7s-0.6,1.1-1.1,1.4c-1,0.6-2.7,0.8-5.2,0.8h-16.6c-2.5,0-4.2-0.3-5.2-0.8
			c-0.4-0.3-1-0.8-1.1-1.4c-0.3-0.6-0.3-1.3-0.3-1.7v-13H128.5L128.5,159.1z M163.3,176.2v-17.1h22.5c1.5-0.2,3.1,0.2,4.4,0.8
			c0.4,0.3,0.8,0.6,1.1,1.1c0.3,0.4,0.3,1,0.3,1.4v3.8c0,0.4,0,1-0.3,1.4s-0.6,0.8-1.1,1.1c-1.4,0.6-2.9,1-4.4,0.8h-16.6v6.7H163.3z
			 M183.1,162.1h-14v4.4h14c0.8,0,1.4,0,2.3-0.3c0.2-0.2,0.3-0.3,0.4-0.4s0.2-0.4,0.2-0.6v-1.8c0-0.2,0-0.4-0.2-0.6
			s-0.3-0.3-0.4-0.4C184.8,162.1,184,162.1,183.1,162.1L183.1,162.1z"/>
	</g>
	<rect x="222.7" y="29.1" class="st1" width="2.8" height="147.2"/>
</g>
<g>
	<path class="st1" d="M261.9,132.4V86.7h10.8l12,19.3l12-19.3h10.8v45.7h-10v-29.8l-12.9,19.5h-0.3l-12.7-19.3v29.6H261.9z"/>
	<path class="st1" d="M314.6,132.4l19.6-46h9.3l19.6,46h-10.5l-4.2-10.2h-19.3l-4.2,10.2H314.6z M332.7,113.3h12.1l-6.1-14.8
		L332.7,113.3z"/>
	<path class="st1" d="M370.1,132.4V86.7H391c5.8,0,10.2,1.5,13.3,4.6c2.6,2.6,3.9,6.1,3.9,10.6c0,7-3.3,11.7-9.8,14.2l11.2,16.3
		h-11.7l-9.9-14.6h-7.8v14.6H370.1z M380.2,108.9h10.2c2.4,0,4.3-0.6,5.7-1.8c1.3-1.2,2-2.8,2-4.8c0-2.1-0.7-3.8-2.1-4.9
		c-1.4-1.1-3.3-1.7-5.8-1.7h-10L380.2,108.9L380.2,108.9z"/>
	<path class="st1" d="M417.3,132.4V86.7h10v20l18.5-20h12.1l-18.6,19.4l19.4,26.3h-12.1L432.4,113l-5.3,5.5v14h-9.8V132.4z"/>
	<path class="st1" d="M464.9,132.4V86.7h34.5v8.9h-24.5v9.3h21.5v8.9h-21.5v9.6h24.8v8.9L464.9,132.4L464.9,132.4z"/>
	<path class="st1" d="M519.3,132.4V96h-13.9v-9.3h37.8V96h-13.9v36.4H519.3z"/>
</g>
</svg>
