<?xml version="1.0" encoding="utf-8"?>
<!-- Generator: Adobe Illustrator 27.2.0, SVG Export Plug-In . SVG Version: 6.00 Build 0)  -->
<svg version="1.1" id="Слой_1" xmlns="http://www.w3.org/2000/svg" xmlns:xlink="http://www.w3.org/1999/xlink" x="0px" y="0px"
	 viewBox="0 0 1095.5 176" style="enable-background:new 0 0 1095.5 176;" xml:space="preserve">
<style type="text/css">
	.st0{fill-rule:evenodd;clip-rule:evenodd;fill:#FFFFFF;}
	.st1{fill:#FFFFFF;}
</style>
<g>
	<g>
		<path class="st0" d="M80.9,0.1c-0.4-1-2.3,9.2-16.3,19.7c-14.2,10.4-3.3,25.6-3.5,25c-0.2-0.4,0.6-11.6,14-19.2
			C87.6,14.7,83.3,5.1,80.9,0.1L80.9,0.1z M87.7,2.7C94.3,6,114.5,25,98.2,39.4c-15.9,13-11.7,29.4-13,30.9s-24.3-26-7.3-40.6
			C94.8,15,85.2,1.4,87.7,2.7z M107.9,17.4c9.6,5,30,29.9,11.7,45.6c-14,11.6-22.7,22.7-23.6,26c-1.5-4.9-10-28.8,4-42.7
			C116.1,30.3,107.1,17,107.9,17.4L107.9,17.4z M65.6,44.7c0.2,4.9,2.7,14,15.1,26.8C93.2,84.4,84.3,95,84.3,95s-2.1-7-14.8-15.5
			C58.4,70.2,65.6,44.7,65.6,44.7z"/>
		<path class="st0" d="M0.2,153.5h190l-0.4-1.4H0.6L0.2,153.5z"/>
		<path class="st0" d="M147.1,126.4l5.6-25.6c6.1,0,19.6-1.7,21.7,4.2l14.1,41.5l-22.7-0.2l-8.7-35.9l-6.4,36h-13.1L118,114
			l3.1,32.5h-6.7l-4.2-45.6c6.3,0,13.8-0.3,20-0.3L147.1,126.4z"/>
		<path class="st0" d="M99.2,100.6l2.7,46H77.6l1.8-45.8L99.2,100.6z"/>
		<path class="st0" d="M42.9,146.8c-1-12,6-21.5-4-22.7c-2.3-0.4-4.9-0.6-7.3-0.8l-4.4,23.5H4.9c-0.4,0-1.1-0.2-1.5-0.3
			c-0.4-0.2-0.8-0.4-1-1c-0.2-0.3-0.3-0.8-0.3-1.3l13.8-39.6c1.8-5,18.6-3.9,27.5-4c8.3,0,15.4,0.6,20,2.9c4.3,2.3,5.7,5.3,5.6,8.7
			c0,1.3-0.3,2.7-1.1,3.8s-1.8,2.1-3.1,2.7c-2.9,1.5-4.4,2.1-13.1,3.3c8.5,1.5,10.2,2.1,11.6,4.2c2.9,4.3-0.4,14.6,2.7,20.6H42.9
			L42.9,146.8z M35.8,105C35.6,105,35.6,105,35.8,105c-1,2.7-3.1,13.1-3.5,14.6c0,0.2,0.2,0.2,0.3,0.2c2.9,0.2,7.4,0.2,9.6-0.4
			c7.7-2.1,7.9-8.8,5.4-12.1C45.8,104.3,38.4,104.5,35.8,105z"/>
		<path class="st0" d="M25.4,162.2H6.3v10.6h19.2v-3.6h-9.9v-2.9h15.9v6c0,0.6,0,1.3-0.3,1.7c-0.3,0.6-0.6,1.1-1.1,1.4
			c-1,0.6-2.7,0.8-5.2,0.8H6.7c-2.5,0-4.2-0.3-5.2-0.8c-0.4-0.3-1-0.8-1.1-1.4c-0.3-0.6-0.3-1.1-0.3-1.7v-8.9
			c-0.2-0.6,0-1.3,0.3-1.7c0.3-0.6,0.6-1.1,1.1-1.4c1-0.6,2.7-0.8,5.2-0.8h18.1c2.5,0,4.2,0.3,5.2,0.8c0.4,0.3,0.8,0.8,1.1,1.3
			c0.3,0.4,0.3,1.1,0.3,1.7v0.4l-6,0.6V162.2L25.4,162.2z M61.7,162.1h-14v4.8h14c0.8,0,1.4,0,2.3-0.3c0.2-0.2,0.3-0.3,0.4-0.4
			c0.2-0.2,0.2-0.4,0.2-0.6v-2.1c0-0.2,0-0.4-0.2-0.6s-0.3-0.3-0.4-0.4C63.1,162.1,62.5,162.1,61.7,162.1L61.7,162.1z M41.6,176.2
			v-17.1h22.5c1.5-0.2,3.1,0.2,4.4,0.8c0.4,0.3,0.8,0.6,1.1,1.1c0.3,0.4,0.3,1,0.3,1.4v4c0,0.4-0.2,1-0.3,1.4
			c-0.3,0.4-0.6,0.8-1.1,1.1c-1.4,0.6-2.9,1-4.4,0.8h-3.5l11.9,6.4h-8.8l-10.5-6.4h-5.7v6.4L41.6,176.2L41.6,176.2L41.6,176.2z
			 M85.6,172.9h20.2v-10.7H85.6V172.9z M79.8,163.2c0-0.6,0-1.3,0.3-1.7c0.2-0.6,0.6-1.1,1.1-1.4c1-0.6,2.7-0.8,5.2-0.8h19.2
			c2.7,0,4.2,0.3,5.2,0.8c0.4,0.3,0.8,1,1.1,1.4c0.2,0.6,0.3,1.1,0.2,1.7v8.9c0,0.6,0,1.3-0.3,1.7c-0.3,0.6-0.6,1.1-1.1,1.4
			c-1,0.6-2.7,0.8-5.2,0.8H86.3c-2.5,0-4.2-0.3-5.2-0.8c-0.4-0.3-0.8-1-1.1-1.4c-0.2-0.6-0.3-1.1-0.3-1.7L79.8,163.2L79.8,163.2z
			 M128.5,159.1v14h17.3v-14h6.1v13c0,0.6,0,1.3-0.3,1.7s-0.6,1.1-1.1,1.4c-1,0.6-2.7,0.8-5.2,0.8h-16.6c-2.5,0-4.2-0.3-5.2-0.8
			c-0.4-0.3-1-0.8-1.1-1.4c-0.3-0.6-0.3-1.3-0.3-1.7v-13H128.5L128.5,159.1z M163.3,176.2v-17.1h22.5c1.5-0.2,3.1,0.2,4.4,0.8
			c0.4,0.3,0.8,0.6,1.1,1.1c0.3,0.4,0.3,1,0.3,1.4v3.8c0,0.4,0,1-0.3,1.4s-0.6,0.8-1.1,1.1c-1.4,0.6-2.9,1-4.4,0.8h-16.6v6.7H163.3z
			 M183.1,162.1h-14v4.4h14c0.8,0,1.4,0,2.3-0.3c0.2-0.2,0.3-0.3,0.4-0.4s0.2-0.4,0.2-0.6v-1.8c0-0.2,0-0.4-0.2-0.6
			s-0.3-0.3-0.4-0.4C184.8,162.1,184,162.1,183.1,162.1L183.1,162.1z"/>
	</g>
	<g>
		<g>
			<path class="st1" d="M275.9,95.9h-14v-9.3h38.2v9.3h-14v36.7H276V95.9H275.9z"/>
			<path class="st1" d="M307.8,86.5h34.7v9h-24.7v9.3h21.7v9h-21.7v9.7h25v9h-35.1v-46H307.8z"/>
			<path class="st1" d="M351.9,86.5h38.4v46.1h-10.1V95.7H362v36.9h-10.1V86.5L351.9,86.5z"/>
			<path class="st1" d="M440.4,86.5v46.1h-10.2V95.7h-13.3v3.5c0,27.1-4.4,34-14.9,34c-1.6,0-4.1-0.3-5.3-0.6l0.7-8.4
				c0.5,0.1,0.9,0.1,1.6,0.1c5.5,0,8.6-3.5,8.6-28.3v-9.5L440.4,86.5L440.4,86.5z"/>
			<path class="st1" d="M449.4,109.6c0-13.1,10.3-23.8,24.5-23.8s24.4,10.6,24.4,23.8c0,13.1-10.3,23.8-24.5,23.8
				S449.4,122.8,449.4,109.6z M487.8,109.6c0-7.9-5.8-14.5-14-14.5s-13.8,6.5-13.8,14.5c0,7.9,5.8,14.5,14,14.5
				C482.1,124.1,487.8,117.6,487.8,109.6z"/>
			<path class="st1" d="M505.3,109.6c0-13.1,9.9-23.8,24-23.8c8.7,0,13.6,3.3,17.8,7.5l-6.1,7c-3.6-3.2-6.6-5.1-11.8-5.1
				c-7.8,0-13.4,6.5-13.4,14.5c0,7.9,5.5,14.5,13.4,14.5c5.3,0,8.5-2.1,12.1-5.4l6.4,6.9c-4.7,5.1-10,7.8-18.9,7.8
				C515.4,133.4,505.3,122.9,505.3,109.6z"/>
			<path class="st1" d="M566.6,95.9h-14v-9.3h38.2v9.3h-14v36.7h-10.1V95.9H566.6z"/>
			<path class="st1" d="M598.6,86.5h18.8c11,0,17.6,6.5,17.6,16.1c0,10.7-8.3,16.2-18.6,16.2h-7.7v13.8h-10.1V86.5z M616.7,109.8
				c5.1,0,8-3,8-7.1c0-4.5-3.2-7-8.2-7h-7.8v14.1H616.7z"/>
			<path class="st1" d="M640.5,109.6c0-13.1,10.3-23.8,24.5-23.8s24.4,10.6,24.4,23.8c0,13.1-10.3,23.8-24.5,23.8
				S640.5,122.8,640.5,109.6z M678.9,109.6c0-7.9-5.8-14.5-14-14.5s-13.8,6.5-13.8,14.5c0,7.9,5.8,14.5,14,14.5
				C673.2,124.1,678.9,117.6,678.9,109.6z"/>
			<path class="st1" d="M738.1,132.6h-10v-30.2L708,132.6h-9.5V86.5h10v30.2l20.3-30.2h9.4v46.1H738.1L738.1,132.6z M707.4,73
				l5.9-1.1c0.9,2.7,2.4,4.4,5.2,4.4s4.3-1.7,5.2-4.4l5.9,1.1c-0.9,6.3-5,10-11.1,10S708.3,79.4,707.4,73z"/>
			<path class="st1" d="M749.2,86.5h38.4v46.1h-10.1V95.7h-18.2v36.9h-10.1L749.2,86.5L749.2,86.5z"/>
			<path class="st1" d="M798.7,86.5h18.8c11,0,17.6,6.5,17.6,16.1c0,10.7-8.3,16.2-18.6,16.2h-7.7v13.8h-10.1V86.5z M816.8,109.8
				c5.1,0,8-3,8-7.1c0-4.5-3.2-7-8.2-7h-7.8v14.1H816.8z"/>
			<path class="st1" d="M840.6,109.6c0-13.1,10.3-23.8,24.5-23.8s24.4,10.6,24.4,23.8c0,13.1-10.3,23.8-24.5,23.8
				S840.6,122.8,840.6,109.6z M879,109.6c0-7.9-5.8-14.5-14-14.5s-13.8,6.5-13.8,14.5c0,7.9,5.8,14.5,14,14.5
				C873.3,124.1,879,117.6,879,109.6z"/>
			<path class="st1" d="M898.6,86.5h34.7v9h-24.7v9.3h21.7v9h-21.7v9.7h25v9h-35.1L898.6,86.5L898.6,86.5z"/>
			<path class="st1" d="M942.7,86.5h10.1v20.1l18.7-20.1h12.2L964.9,106l19.6,26.5h-12.2L958,112.9l-5.3,5.5v14.1h-10.1L942.7,86.5
				L942.7,86.5z"/>
			<path class="st1" d="M1001.4,95.9h-14v-9.3h38.2v9.3h-14v36.7h-10.1L1001.4,95.9L1001.4,95.9z"/>
			<path class="st1" d="M1026,107.4h20.3v9.6H1026V107.4z"/>
			<path class="st1" d="M1053.1,109.6c0-13.1,9.9-23.8,24-23.8c8.7,0,13.6,3.3,17.8,7.5l-6.1,7c-3.6-3.2-6.6-5.1-11.8-5.1
				c-7.8,0-13.4,6.5-13.4,14.5c0,7.9,5.5,14.5,13.4,14.5c5.3,0,8.5-2.1,12.1-5.4l6.4,6.9c-4.7,5.1-10,7.8-18.9,7.8
				C1063.2,133.4,1053.1,122.9,1053.1,109.6z"/>
		</g>
	</g>
	<rect x="222.7" y="29.1" class="st1" width="2.8" height="147.2"/>
</g>
</svg>
