<?xml version="1.0" encoding="utf-8"?>
<!-- Generator: Adobe Illustrator 27.2.0, SVG Export Plug-In . SVG Version: 6.00 Build 0)  -->
<svg version="1.1" id="Layer_1" xmlns="http://www.w3.org/2000/svg" xmlns:xlink="http://www.w3.org/1999/xlink" x="0px" y="0px"
	 viewBox="0 0 91 91" style="enable-background:new 0 0 91 91;" xml:space="preserve">
<style type="text/css">
	.st0{fill:#FFFFFF;}
</style>
<g>
	<path class="st0" d="M28.7,88.3L28.7,88.3h53.1h8.3v-5.5h-5.6V43.8c0-1.1-0.6-1.9-1.6-2.4c-1-0.5-2.1-0.3-2.9,0.3l-22,18.3
		l-0.2-16.2c0-1-0.6-1.9-1.4-2.4c-1-0.5-1.9-0.3-2.9,0.3L31.5,58.2V28.8c0-1.4-1.3-2.7-2.7-2.7H15.4c-1.4,0-2.6,1-2.7,2.4L6.3,82.9
		H0.8v5.5h7.9H28.7z"/>
	<path class="st0" d="M20.2,24.4c0.3,0.2,0.6,0.2,1,0.2c1.3,0,2.4-0.8,2.9-2.1c2.2-6.7,9-7.7,13.9-6.6c8.7,2.1,16.4,2.9,22.4-8.8
		c0.8-1.4,0.2-3.4-1.3-4c-1.4-0.8-3.4-0.2-4,1.3c-3.8,7.4-6.9,7.9-15.7,5.8c-8-1.9-17.6,0.6-21,10.4C17.8,22.1,18.6,23.9,20.2,24.4z
		"/>
</g>
</svg>
