<?xml version="1.0" encoding="utf-8"?>
<!-- Generator: Adobe Illustrator 27.2.0, SVG Export Plug-In . SVG Version: 6.00 Build 0)  -->
<svg version="1.1" id="Слой_1" xmlns="http://www.w3.org/2000/svg" xmlns:xlink="http://www.w3.org/1999/xlink" x="0px" y="0px"
	 viewBox="0 0 56.8 39.7" style="enable-background:new 0 0 56.8 39.7;" xml:space="preserve">
<style type="text/css">
	.st0{fill:#FFFFFF;}
</style>
<g>
	<path class="st0" d="M16.7,19.1c0.1-0.1,0.2-0.3,0.4-0.4c2.9,2.9,5.7,5.7,8.4,8.4C32.7,19.9,39.8,12.8,47,5.6c-2.3,0-4.7,0-7.1,0
		c0-1.9,0-3.8,0-5.6c5.7,0,11.3,0,17,0c0,5.6,0,11.3,0,16.9c-1.9,0-3.7,0-5.6,0c0-2.4,0-4.8,0-7.2c-8.5,8.5-17,17-25.5,25.5
		c-2.9-2.9-5.8-5.8-8.6-8.6c-4.3,4.3-8.7,8.7-13,13c-1.2-1.2-2.3-2.3-3.5-3.5c-0.1-0.1-0.5-0.4-0.5-0.4S11.3,24.5,16.7,19.1z"/>
</g>
</svg>
