<?xml version="1.0" encoding="utf-8"?>
<!-- Generator: Adobe Illustrator 27.2.0, SVG Export Plug-In . SVG Version: 6.00 Build 0)  -->
<svg version="1.1" id="Слой_1" xmlns="http://www.w3.org/2000/svg" xmlns:xlink="http://www.w3.org/1999/xlink" x="0px" y="0px"
	 viewBox="0 0 56.8 39.7" style="enable-background:new 0 0 56.8 39.7;" xml:space="preserve">
<style type="text/css">
	.st0{fill:#FFFFFF;}
</style>
<g>
	<path class="st0" d="M16.4,35.5c-0.7-0.3-0.9-0.9-0.9-1.6c0-1.1,0-2.1,0.1-3.1c0.3-1.8,1.9-3.1,3.7-3.1c1.5,0,3,0,4.5,0
		c0-1.7,0-3.4,0-5.2c-0.2,0-0.4,0-0.6,0c-1.7,0-3.4,0.1-5.1,0c-4.9-0.4-9.6-1.8-13.4-5.1C3.1,15.9,2,14.1,1.6,12
		c-0.2-1.2,0.3-1.8,1.5-1.8c4.2,0,8.4,0,12.6,0c0.2,0,0.4,0,0.7,0c0-0.3,0.1-0.6,0.1-0.8c0.1-2.1,1.5-3.5,3.7-3.5
		c7.8,0,15.6,0,23.4,0c2.1,0,3.6,1.5,3.7,3.6c0,3.8,0,7.7,0,11.5c0,1.1-0.5,1.6-1.6,1.6c-1.9,0-3.8,0-5.7,0c0,1.7,0,3.4,0,5.2
		c1.5,0,3,0,4.5,0c1.7,0,3.3,1,3.6,2.7c0.3,1.3,0.2,2.7,0.2,4.1c0,0.5-0.4,0.9-0.9,1.1C37,35.5,26.7,35.5,16.4,35.5z M44.4,19.7
		c0-2.2,0-4.5,0-6.7c-8.4,0-16.7,0-25.1,0c0,2.3,0,4.5,0,6.7C27.7,19.7,36,19.7,44.4,19.7z M45.5,32.8c0-0.3,0-0.4,0-0.6
		c0-1.5-0.3-1.8-1.7-1.8c-7.9,0-15.9,0-23.8,0c-1.4,0-1.7,0.3-1.7,1.8c0,0.2,0,0.4,0,0.6C27.3,32.8,36.4,32.8,45.5,32.8z M37,27.6
		c0-1.7,0-3.4,0-5.1c-3.5,0-6.9,0-10.4,0c0,1.7,0,3.4,0,5.1C30.1,27.6,33.5,27.6,37,27.6z M4.8,12.9c2.7,4.5,7,5.8,11.6,6.7
		c0-2.3,0-4.5,0-6.7C12.6,12.9,8.8,12.9,4.8,12.9z M44.4,10.1c0-0.2,0-0.3,0-0.5c0-0.9-0.2-1.1-1.2-1.1c-0.9,0-1.7,0-2.6,0
		c-6.8,0-13.6,0-20.4,0c-0.9,0-1.1,0.2-1,1.1c0,0.2,0,0.3,0,0.5C27.7,10.1,36,10.1,44.4,10.1z"/>
</g>
</svg>
