<?xml version="1.0" encoding="utf-8"?>
<!-- Generator: Adobe Illustrator 27.2.0, SVG Export Plug-In . SVG Version: 6.00 Build 0)  -->
<svg version="1.1" id="Слой_1" xmlns="http://www.w3.org/2000/svg" xmlns:xlink="http://www.w3.org/1999/xlink" x="0px" y="0px"
	 viewBox="0 0 1143.4 217.5" style="enable-background:new 0 0 1143.4 217.5;" xml:space="preserve">
<style type="text/css">
	.st0{fill-rule:evenodd;clip-rule:evenodd;fill:#FFFFFF;}
	.st1{fill:#FFFFFF;}
	.st2{font-family:'GothamPro-Bold';}
	.st3{font-size:65.8068px;}
</style>
<g>
	<path class="st0" d="M96.6,0.1c-0.5-1.2-2.7,11-19.5,23.6c-17,12.4-4,30.6-4.2,29.9c-0.2-0.5,0.7-13.9,16.7-22.9
		C104.6,17.6,99.5,6.1,96.6,0.1L96.6,0.1z M104.8,3.2c7.9,4,32.1,26.7,12.5,43.9c-19,15.5-14,35.1-15.5,36.9
		c-1.5,1.8-29.1-31.1-8.7-48.6C113.3,17.9,101.8,1.7,104.8,3.2z M128.9,20.8c11.5,6,35.9,35.7,14,54.5
		c-16.7,13.9-27.1,27.1-28.2,31.1c-1.8-5.8-12-34.4,4.8-51.1C138.7,36.2,128,20.3,128.9,20.8L128.9,20.8z M78.3,53.4
		c0.2,5.8,3.2,16.7,18,32.1c14.9,15.4,4.3,28.1,4.3,28.1s-2.5-8.4-17.7-18.5C69.7,83.9,78.3,53.4,78.3,53.4z"/>
	<path class="st0" d="M0.1,183.5h227.2l-0.5-1.7H0.6L0.1,183.5z"/>
	<path class="st0" d="M175.8,151.2l6.7-30.6c7.3,0,23.4-2,25.9,5l16.9,49.6l-27.1-0.2l-10.4-42.9l-7.7,43.1h-15.7L141,136.4
		l3.7,38.9h-8l-5-54.5c7.5,0,16.5-0.3,23.9-0.3L175.8,151.2z"/>
	<path class="st0" d="M118.5,120.3l3.2,55H92.6l2.2-54.8L118.5,120.3z"/>
	<path class="st0" d="M51.2,175.5c-1.2-14.4,7.2-25.7-4.8-27.1c-2.8-0.5-5.8-0.7-8.7-1l-5.3,28.1H5.8c-0.5,0-1.3-0.2-1.8-0.3
		c-0.5-0.2-1-0.5-1.2-1.2c-0.2-0.3-0.3-1-0.3-1.5L19,125.2c2.2-6,22.2-4.7,32.9-4.8c9.9,0,18.4,0.7,23.9,3.5
		c5.2,2.7,6.8,6.3,6.7,10.4c0,1.5-0.3,3.2-1.3,4.5s-2.2,2.5-3.7,3.2c-3.5,1.8-5.3,2.5-15.7,4c10.2,1.8,12.2,2.5,13.9,5
		c3.5,5.2-0.5,17.4,3.2,24.6L51.2,175.5L51.2,175.5z M42.7,125.5C42.5,125.5,42.5,125.5,42.7,125.5c-1.2,3.2-3.7,15.7-4.2,17.5
		c0,0.2,0.2,0.2,0.3,0.2c3.5,0.2,8.9,0.2,11.5-0.5c9.2-2.5,9.5-10.5,6.5-14.5C54.7,124.7,45.8,125,42.7,125.5z"/>
	<path class="st0" d="M30.3,194H7.4v12.7h22.9v-4.3H18.5v-3.5h19v7.2c0,0.7,0,1.5-0.3,2c-0.3,0.7-0.7,1.3-1.3,1.7
		c-1.2,0.7-3.2,1-6.2,1H7.9c-3,0-5-0.3-6.2-1c-0.5-0.3-1.2-1-1.3-1.7c-0.3-0.7-0.3-1.3-0.3-2v-10.7c-0.2-0.7,0-1.5,0.3-2
		c0.3-0.7,0.7-1.3,1.3-1.7c1.2-0.7,3.2-1,6.2-1h21.7c3,0,5,0.3,6.2,1c0.5,0.3,1,1,1.3,1.5s0.3,1.3,0.3,2v0.5l-7.2,0.7L30.3,194
		L30.3,194z M73.7,193.8H57v5.7h16.7c1,0,1.7,0,2.7-0.3c0.2-0.2,0.3-0.3,0.5-0.5s0.2-0.5,0.2-0.7v-2.5c0-0.2,0-0.5-0.2-0.7
		s-0.3-0.3-0.5-0.5C75.4,193.8,74.6,193.8,73.7,193.8L73.7,193.8z M49.7,210.7v-20.4h26.9c1.8-0.2,3.7,0.2,5.3,1
		c0.5,0.3,1,0.7,1.3,1.3c0.3,0.5,0.3,1.2,0.3,1.7v4.8c0,0.5-0.2,1.2-0.3,1.7c-0.3,0.5-0.7,1-1.3,1.3c-1.7,0.7-3.5,1.2-5.3,1h-4.2
		l14.2,7.7H76.1l-12.5-7.7h-6.8v7.7h-7L49.7,210.7L49.7,210.7z M102.3,206.7h24.2V194h-24.2V206.7z M95.3,195.2c0-0.7,0-1.5,0.3-2
		c0.2-0.7,0.7-1.3,1.3-1.7c1.2-0.7,3.2-1,6.2-1H126c3.2,0,5,0.3,6.2,1c0.5,0.3,1,1.2,1.3,1.7c0.2,0.7,0.3,1.3,0.2,2v10.7
		c0,0.7,0,1.5-0.3,2c-0.3,0.7-0.7,1.3-1.3,1.7c-1.2,0.7-3.2,1-6.2,1H103c-3,0-5-0.3-6.2-1c-0.5-0.3-1-1.2-1.3-1.7
		c-0.2-0.7-0.3-1.3-0.3-2v-10.7H95.3z M153.6,190.2v16.7h20.7v-16.7h7.3v15.5c0,0.7,0,1.5-0.3,2s-0.7,1.3-1.3,1.7
		c-1.2,0.7-3.2,1-6.2,1h-19.9c-3,0-5-0.3-6.2-1c-0.5-0.3-1.2-1-1.3-1.7c-0.3-0.7-0.3-1.5-0.3-2v-15.5H153.6L153.6,190.2z
		 M195.2,210.7v-20.4h26.9c1.8-0.2,3.7,0.2,5.3,1c0.5,0.3,1,0.7,1.3,1.3c0.3,0.5,0.3,1.2,0.3,1.7v4.5c0,0.5,0,1.2-0.3,1.7
		s-0.7,1-1.3,1.3c-1.7,0.7-3.5,1.2-5.3,1h-19.9v8L195.2,210.7z M218.9,193.8h-16.7v5.3h16.7c1,0,1.7,0,2.7-0.3
		c0.2-0.2,0.3-0.3,0.5-0.5s0.2-0.5,0.2-0.7v-2.2c0-0.2,0-0.5-0.2-0.7s-0.3-0.3-0.5-0.5C220.9,193.8,219.9,193.8,218.9,193.8
		L218.9,193.8z"/>
</g>
<g>
	<path class="st1" d="M313,94.7h-14v-9.3h38.2v9.3h-14v36.7h-10.1V94.7H313z"/>
	<path class="st1" d="M344.9,85.3h34.7v9h-24.7v9.3h21.7v9h-21.7v9.7h25v9h-35.1v-46H344.9z"/>
	<path class="st1" d="M389,85.3h38.4v46.1h-10.1V94.5h-18.2v36.9H389L389,85.3L389,85.3z"/>
	<path class="st1" d="M477.5,85.3v46.1h-10.2V94.5H454V98c0,27.1-4.4,34-14.9,34c-1.6,0-4.1-0.3-5.3-0.6l0.7-8.4
		c0.5,0.1,0.9,0.1,1.6,0.1c5.5,0,8.6-3.5,8.6-28.3v-9.5H477.5z"/>
	<path class="st1" d="M486.5,108.4c0-13.1,10.3-23.8,24.5-23.8s24.4,10.6,24.4,23.8c0,13.1-10.3,23.8-24.5,23.8
		S486.5,121.6,486.5,108.4z M524.9,108.4c0-7.9-5.8-14.5-14-14.5s-13.8,6.5-13.8,14.5c0,7.9,5.8,14.5,14,14.5
		C519.2,122.9,524.9,116.4,524.9,108.4z"/>
	<path class="st1" d="M542.4,108.4c0-13.1,9.9-23.8,24-23.8c8.7,0,13.6,3.3,17.8,7.5l-6.1,7c-3.6-3.2-6.6-5.1-11.8-5.1
		c-7.8,0-13.4,6.5-13.4,14.5c0,7.9,5.5,14.5,13.4,14.5c5.3,0,8.5-2.1,12.1-5.4l6.4,6.9c-4.7,5.1-10,7.8-18.9,7.8
		C552.5,132.2,542.4,121.7,542.4,108.4z"/>
	<path class="st1" d="M603.7,94.7h-14v-9.3h38.2v9.3h-14v36.7h-10.1V94.7H603.7z"/>
	<path class="st1" d="M635.7,85.3h18.8c11,0,17.6,6.5,17.6,16.1c0,10.7-8.3,16.2-18.6,16.2h-7.7v13.8h-10.1V85.3z M653.8,108.6
		c5.1,0,8-3,8-7.1c0-4.5-3.2-7-8.2-7h-7.8v14.1H653.8z"/>
	<path class="st1" d="M677.6,108.4c0-13.1,10.3-23.8,24.5-23.8s24.4,10.6,24.4,23.8c0,13.1-10.3,23.8-24.5,23.8
		S677.6,121.6,677.6,108.4z M716,108.4c0-7.9-5.8-14.5-14-14.5s-13.8,6.5-13.8,14.5c0,7.9,5.8,14.5,14,14.5
		C710.3,122.9,716,116.4,716,108.4z"/>
	<path class="st1" d="M775.2,131.4h-10v-30.2l-20.1,30.2h-9.5V85.3h10v30.2l20.3-30.2h9.4v46.1L775.2,131.4L775.2,131.4z
		 M744.5,71.8l5.9-1.1c0.9,2.7,2.4,4.4,5.2,4.4s4.3-1.7,5.2-4.4l5.9,1.1c-0.9,6.3-5,10-11.1,10S745.4,78.2,744.5,71.8z"/>
	<path class="st1" d="M786.3,85.3h38.4v46.1h-10.1V94.5h-18.2v36.9h-10.1V85.3z"/>
	<path class="st1" d="M835.8,85.3h18.8c11,0,17.6,6.5,17.6,16.1c0,10.7-8.3,16.2-18.6,16.2h-7.7v13.8h-10.1V85.3z M853.9,108.6
		c5.1,0,8-3,8-7.1c0-4.5-3.2-7-8.2-7h-7.8v14.1H853.9z"/>
	<path class="st1" d="M877.7,108.4c0-13.1,10.3-23.8,24.5-23.8s24.4,10.6,24.4,23.8c0,13.1-10.3,23.8-24.5,23.8
		C887.9,132.2,877.7,121.6,877.7,108.4z M916.1,108.4c0-7.9-5.8-14.5-14-14.5s-13.8,6.5-13.8,14.5c0,7.9,5.8,14.5,14,14.5
		C910.4,122.9,916.1,116.4,916.1,108.4z"/>
	<path class="st1" d="M935.7,85.3h34.7v9h-24.7v9.3h21.7v9h-21.7v9.7h25v9h-35.1L935.7,85.3L935.7,85.3z"/>
	<path class="st1" d="M979.8,85.3h10.1v20.1l18.7-20.1h12.2l-18.8,19.5l19.6,26.5h-12.2l-14.3-19.6l-5.3,5.5v14.1h-10.1v-46H979.8z"
		/>
	<path class="st1" d="M1038.5,94.7h-14v-9.3h38.2v9.3h-14v36.7h-10.1L1038.5,94.7L1038.5,94.7z"/>
	<path class="st1" d="M1063.1,106.2h20.3v9.6h-20.3V106.2z"/>
	<path class="st1" d="M1090.2,108.4c0-13.1,9.9-23.8,24-23.8c8.7,0,13.6,3.3,17.8,7.5l-6.1,7c-3.6-3.2-6.6-5.1-11.8-5.1
		c-7.8,0-13.4,6.5-13.4,14.5c0,7.9,5.5,14.5,13.4,14.5c5.3,0,8.5-2.1,12.1-5.4l6.4,6.9c-4.7,5.1-10,7.8-18.9,7.8
		C1100.3,132.2,1090.2,121.7,1090.2,108.4z"/>
</g>
<text transform="matrix(1 0 0 1 1135.2468 131.3896)" class="st1 st2 st3"> </text>
<rect x="260.2" y="28.9" class="st1" width="7.7" height="176"/>
<g>
	<ellipse class="st1" cx="880.7" cy="170.6" rx="6.1" ry="6.1"/>
	<ellipse class="st1" cx="531.7" cy="170.6" rx="6.1" ry="6.1"/>
	<path class="st1" d="M948.6,165.2h-6.5v6.7h6.5c2.1,0,3.6-1.2,3.6-3.3S950.8,165.2,948.6,165.2z"/>
	<polygon class="st1" points="984.5,176 993.5,176 993.5,165 986.4,165 	"/>
	<polygon class="st1" points="409,176 418,176 418,165 410.9,165 	"/>
	<path class="st1" d="M805.8,164.5c-3.4,0-6.1,2.3-6.1,6.1s2.7,6.1,6.1,6.1c3.4,0,6.1-2.3,6.1-6.1S809.2,164.5,805.8,164.5z"/>
	<ellipse class="st1" cx="847.9" cy="170.6" rx="6.1" ry="6.1"/>
	<path class="st1" d="M905.3,171.1h-7.2v4.9h7.3c1.9,0,2.6-1.1,2.6-2.5C908,172.1,907.3,171.1,905.3,171.1z"/>
	<ellipse class="st1" cx="1011.9" cy="170.6" rx="6.1" ry="6.1"/>
	<ellipse class="st1" cx="924.7" cy="170.6" rx="6.1" ry="6.1"/>
	<path class="st1" d="M619.1,165.2h-6.5v6.7h6.5c2.1,0,3.6-1.2,3.6-3.3S621.2,165.2,619.1,165.2z"/>
	<polygon class="st1" points="343.9,165.1 340.5,173.3 348.6,173.3 345.3,165.1 	"/>
	<path class="st1" d="M1117.8,168.6c0,2.1,1.5,3.3,3.6,3.3h6.5v-6.7h-6.5C1119.2,165.2,1117.8,166.5,1117.8,168.6z"/>
	<path class="st1" d="M371.8,166.8c0-0.8-0.4-1.7-1.8-1.7h-7.4v3.3h7.8C371.3,168.5,371.8,167.7,371.8,166.8z"/>
	<ellipse class="st1" cx="389.9" cy="170.6" rx="6.1" ry="6.1"/>
	<path class="st1" d="M299.1,141.7v55h844.3v-55H299.1z M329.7,178.4c-1.7,1.3-4.4,1.8-7.6,1.8c-4,0-6.7-0.8-9.7-2.8l1.9-3.1
		c2.3,1.5,4.9,2.2,8,2.2c3.5,0,5.8-0.7,5.8-2.8c0-1.2-0.7-1.8-2.7-1.8h-7.3v-3.6h7.3c1,0,1.5-0.5,1.5-1.5c0-1.4-1.5-2.1-4.8-2.1
		c-3.2,0-4.9,0.5-7.2,1.9l-1.7-3c2.9-2,5.6-2.6,8.9-2.6c2.9,0,5.3,0.5,6.9,1.6c1.3,0.9,2.1,2.2,2.1,4c0,1.2-0.5,2.2-1.4,2.8
		c1.7,0.9,2.5,2.3,2.5,4.4C332.2,175.7,331.3,177.2,329.7,178.4z M351.4,179.7l-1.2-2.8H339l-1.2,2.8h-4.4l8-18.3h6.7l7.8,18.3
		H351.4z M371.1,179.7h-12.7v-18.3h11.8c3.3,0,5.7,1.9,5.7,4.9c0,1.3-0.5,2.4-1.4,3.1c1.7,0.9,2.7,2.3,2.7,4.6
		C377.1,177.2,374.6,179.7,371.1,179.7z M389.9,180.2c-5.6,0-10.3-3.8-10.3-9.6c0-5.8,4.7-9.6,10.3-9.6s10.3,3.8,10.3,9.6
		C400.1,176.3,395.4,180.2,389.9,180.2z M424.3,183.2h-3.6l-0.3-3.5h-14.1l-0.3,3.5h-3.6V176h2.3l2.9-14.6h14.6V176h2.1V183.2z
		 M455,165.1h-7.4v14.6h-4.1v-14.6h-7.4v-3.7h19V165.1z M474.7,179.7h-17.1v-18.3h16.6v3.7h-12.5v3.4h11.2v3.7h-11.2v3.6h12.9V179.7
		z M495.8,179.7h-4.1v-14.6h-9.8v14.6h-4.1v-18.3h18V179.7z M518.4,179.7h-4.1v-14.6h-7l-1.9,9.9c-0.6,3.2-2.6,4.7-5.6,4.7h-2.2V176
		h2c1,0,1.6-0.4,1.8-1.4l2.4-13.1h14.6V179.7z M531.7,180.2c-5.6,0-10.3-3.8-10.3-9.6c0-5.8,4.7-9.6,10.3-9.6s10.3,3.8,10.3,9.6
		C542,176.3,537.3,180.2,531.7,180.2z M553.6,180.2c-4.3,0-7.4-1.7-9.3-4.9l3.2-1.9c1.4,2,3.2,3,6.1,3c3.1,0,5.4-1.6,5.9-4.3H551
		v-3.6h8.5c-0.6-2.5-2.8-3.9-5.8-3.9c-2.9,0-4.8,1-6.1,3l-3.2-1.8c1.9-3.2,5.1-4.9,9.4-4.9c5.8,0,10.1,3.7,10.1,9.6
		S559.4,180.2,553.6,180.2z M585,179.7h-4.1v-7.6h-10.3v7.6h-4.1v-18.3h4.1v7h10.3v-7h4.1V179.7z M605.4,179.7h-17.1v-18.3h16.6v3.7
		h-12.5v3.4h11.2v3.7h-11.2v3.6h12.9V179.7z M619.3,175.7h-6.6v4.1h-4.1v-18.3h10.8c4.3,0,7.5,2.9,7.5,7.2
		C626.8,172.9,623.6,175.7,619.3,175.7z M646.3,165.2h-12.7v14.5h-4.1v-18.3h16.9V165.2z M666,179.7H649v-18.3h16.6v3.7h-12.5v3.4
		h11.2v3.7h-11.2v3.6H666V179.7z M687.4,165.1H680v14.6h-4.1v-14.6h-7.4v-3.7h19V165.1z M709.1,179.7H705v-12.6l-10.8,12.6h-4v-18.3
		h4.1v12.7l10.9-12.7h4V179.7z M730.2,179.7h-4.1v-3.9h-6.5c-4.3,0-7.2-2.9-7.2-7.2v-7.2h4.1v6.8c0,2.5,1.3,3.8,3.7,3.8h5.9v-10.6
		h4.1V179.7z M750.7,179.7h-17.1v-18.3h16.6v3.7h-12.5v3.4H749v3.7h-11.2v3.6h12.9V179.7z M763.3,176.5c2.9,0,4.7-1.1,6.1-3.1
		l3.2,1.9c-1.9,3.2-5,4.9-9.3,4.9c-5.9,0-10.2-3.7-10.2-9.6s4.5-9.6,10.2-9.6c4.3,0,7.4,1.7,9.3,4.9l-3.2,1.9
		c-1.4-2-3.2-3.1-6.1-3.1c-3.7,0-6.1,2.3-6.1,5.9C757.2,174.1,759.7,176.5,763.3,176.5z M789.8,179.7L785,172h-5.4v7.8h-4.1v-18.3
		h4.1v6.7h5.3l4.6-6.7h4.8l-5.9,8.5l6.3,9.8H789.8z M805.8,180.2c-5.6,0-10.3-3.8-10.3-9.6c0-5.8,4.7-9.6,10.3-9.6
		c5.6,0,10.2,3.8,10.2,9.6C816.1,176.3,811.4,180.2,805.8,180.2z M836,165.2h-12.7v14.5h-4.1v-18.3H836V165.2z M847.9,180.2
		c-5.6,0-10.2-3.8-10.2-9.6c0-5.8,4.7-9.6,10.2-9.6s10.2,3.8,10.2,9.6C858.2,176.3,853.5,180.2,847.9,180.2z M880.7,180.2
		c-5.6,0-10.2-3.8-10.2-9.6c0-5.8,4.7-9.6,10.2-9.6s10.2,3.8,10.2,9.6C891,176.3,886.3,180.2,880.7,180.2z M905.7,179.7H894v-18.3
		h15.8v3.7h-11.7v2.3h7.6c3.7,0,6.4,2.5,6.4,6C912.1,176.9,909.4,179.7,905.7,179.7z M924.7,180.2c-5.6,0-10.2-3.8-10.2-9.6
		c0-5.8,4.7-9.6,10.2-9.6s10.2,3.8,10.2,9.6C935,176.3,930.3,180.2,924.7,180.2z M948.8,175.7h-6.6v4.1H938v-18.3h10.8
		c4.3,0,7.5,2.9,7.5,7.2C956.3,172.9,953.1,175.7,948.8,175.7z M972.7,175.9c-0.8,2.2-2.8,3.8-5.2,3.8h-5.2v-3.5h5
		c0.7,0,1.4-0.4,1.7-1.2l0.4-1.3h-4.1c-2.7,0-4.3-1.3-5.2-3.8l-2.9-8.6h4.3l2.6,7.7c0.2,0.7,0.8,1,1.4,1h5.1l2.9-8.7h4.2
		L972.7,175.9z M999.8,183.2h-3.6l-0.3-3.5h-14.1l-0.3,3.5h-3.6V176h2.3l2.9-14.6h14.6V176h2.2V183.2z M1011.9,180.2
		c-5.6,0-10.2-3.8-10.2-9.6c0-5.8,4.7-9.6,10.2-9.6s10.2,3.8,10.2,9.6C1022.2,176.3,1017.5,180.2,1011.9,180.2z M1037.9,179.7h-12.7
		v-18.3h11.8c3.3,0,5.7,1.9,5.7,4.9c0,1.3-0.5,2.4-1.4,3.1c1.7,0.9,2.7,2.3,2.7,4.6C1043.9,177.2,1041.3,179.7,1037.9,179.7z
		 M1063.1,179.7l-1.2-2.8h-11.3l-1.2,2.8h-4.4l8-18.3h6.7l7.8,18.3H1063.1z M1088.7,179.7h-4.1v-7.6h-10.3v7.6h-4.1v-18.3h4.1v7
		h10.3v-7h4.1V179.7z M1110.9,179.7h-4.1v-12.6l-10.8,12.6h-4v-18.3h4.1v12.7l10.9-12.7h4V179.7z M1132,179.7h-4.1v-4.1h-6.8
		l-2.2,4.1h-4.5l2.8-5c-2.1-1.2-3.5-3.3-3.5-6.1c0-4.3,3.2-7.2,7.5-7.2h10.8V179.7z"/>
	<polygon class="st1" points="1055.5,165.1 1052.1,173.3 1060.3,173.3 1056.9,165.1 	"/>
	<path class="st1" d="M1038.6,166.8c0-0.8-0.4-1.7-1.8-1.7h-7.4v3.3h7.8C1038,168.5,1038.6,167.7,1038.6,166.8z"/>
	<path class="st1" d="M1037.8,172.1h-8.5v3.9h8.4c1.3,0,2.1-0.8,2.1-2C1039.8,172.8,1039,172.1,1037.8,172.1z"/>
	<path class="st1" d="M371.1,172.1h-8.5v3.9h8.4c1.3,0,2.1-0.8,2.1-2C373.1,172.8,372.3,172.1,371.1,172.1z"/>
</g>
</svg>
