<?xml version="1.0" encoding="utf-8"?>
<!-- Generator: Adobe Illustrator 27.2.0, SVG Export Plug-In . SVG Version: 6.00 Build 0)  -->
<svg version="1.1" id="Слой_1" xmlns="http://www.w3.org/2000/svg" xmlns:xlink="http://www.w3.org/1999/xlink" x="0px" y="0px"
	 viewBox="0 0 1143.4 217.5" style="enable-background:new 0 0 1143.4 217.5;" xml:space="preserve">
<style type="text/css">
	.st0{fill-rule:evenodd;clip-rule:evenodd;fill:#FFFFFF;}
	.st1{fill:#FFFFFF;}
	.st2{font-family:'GothamPro-Bold';}
	.st3{font-size:65.8068px;}
</style>
<g>
	<path class="st0" d="M96.6,0.1c-0.5-1.2-2.7,11-19.5,23.6c-17,12.4-4,30.6-4.2,29.9c-0.2-0.5,0.7-13.9,16.7-22.9
		C104.6,17.6,99.5,6.1,96.6,0.1L96.6,0.1z M104.8,3.2c7.9,4,32.1,26.7,12.5,43.9c-19,15.5-14,35.1-15.5,36.9s-29.1-31.1-8.7-48.6
		C113.3,17.9,101.8,1.7,104.8,3.2z M128.9,20.8c11.5,6,35.9,35.7,14,54.5c-16.7,13.9-27.1,27.1-28.2,31.1c-1.8-5.8-12-34.4,4.8-51.1
		C138.7,36.2,128,20.3,128.9,20.8L128.9,20.8z M78.3,53.4c0.2,5.8,3.2,16.7,18,32.1c14.9,15.4,4.3,28.1,4.3,28.1s-2.5-8.4-17.7-18.5
		C69.7,83.9,78.3,53.4,78.3,53.4z"/>
	<path class="st0" d="M0.1,183.5h227.2l-0.5-1.7H0.6L0.1,183.5z"/>
	<path class="st0" d="M175.8,151.2l6.7-30.6c7.3,0,23.4-2,25.9,5l16.9,49.6l-27.1-0.2l-10.4-42.9l-7.7,43.1h-15.7L141,136.4
		l3.7,38.9h-8l-5-54.5c7.5,0,16.5-0.3,23.9-0.3L175.8,151.2z"/>
	<path class="st0" d="M118.5,120.3l3.2,55H92.6l2.2-54.8L118.5,120.3z"/>
	<path class="st0" d="M51.2,175.5c-1.2-14.4,7.2-25.7-4.8-27.1c-2.8-0.5-5.8-0.7-8.7-1l-5.3,28.1H5.8c-0.5,0-1.3-0.2-1.8-0.3
		c-0.5-0.2-1-0.5-1.2-1.2c-0.2-0.3-0.3-1-0.3-1.5L19,125.2c2.2-6,22.2-4.7,32.9-4.8c9.9,0,18.4,0.7,23.9,3.5
		c5.2,2.7,6.8,6.3,6.7,10.4c0,1.5-0.3,3.2-1.3,4.5s-2.2,2.5-3.7,3.2c-3.5,1.8-5.3,2.5-15.7,4c10.2,1.8,12.2,2.5,13.9,5
		c3.5,5.2-0.5,17.4,3.2,24.6L51.2,175.5L51.2,175.5z M42.7,125.5C42.5,125.5,42.5,125.5,42.7,125.5c-1.2,3.2-3.7,15.7-4.2,17.5
		c0,0.2,0.2,0.2,0.3,0.2c3.5,0.2,8.9,0.2,11.5-0.5c9.2-2.5,9.5-10.5,6.5-14.5C54.7,124.7,45.8,125,42.7,125.5z"/>
	<path class="st0" d="M30.3,194H7.4v12.7h22.9v-4.3H18.5v-3.5h19v7.2c0,0.7,0,1.5-0.3,2c-0.3,0.7-0.7,1.3-1.3,1.7
		c-1.2,0.7-3.2,1-6.2,1H7.9c-3,0-5-0.3-6.2-1c-0.5-0.3-1.2-1-1.3-1.7c-0.3-0.7-0.3-1.3-0.3-2v-10.7c-0.2-0.7,0-1.5,0.3-2
		c0.3-0.7,0.7-1.3,1.3-1.7c1.2-0.7,3.2-1,6.2-1h21.7c3,0,5,0.3,6.2,1c0.5,0.3,1,1,1.3,1.5s0.3,1.3,0.3,2v0.5l-7.2,0.7L30.3,194
		L30.3,194z M73.7,193.8H57v5.7h16.7c1,0,1.7,0,2.7-0.3c0.2-0.2,0.3-0.3,0.5-0.5s0.2-0.5,0.2-0.7v-2.5c0-0.2,0-0.5-0.2-0.7
		s-0.3-0.3-0.5-0.5C75.4,193.8,74.6,193.8,73.7,193.8L73.7,193.8z M49.7,210.7v-20.4h26.9c1.8-0.2,3.7,0.2,5.3,1
		c0.5,0.3,1,0.7,1.3,1.3c0.3,0.5,0.3,1.2,0.3,1.7v4.8c0,0.5-0.2,1.2-0.3,1.7c-0.3,0.5-0.7,1-1.3,1.3c-1.7,0.7-3.5,1.2-5.3,1h-4.2
		l14.2,7.7H76.1l-12.5-7.7h-6.8v7.7h-7L49.7,210.7L49.7,210.7z M102.3,206.7h24.2V194h-24.2V206.7z M95.3,195.2c0-0.7,0-1.5,0.3-2
		c0.2-0.7,0.7-1.3,1.3-1.7c1.2-0.7,3.2-1,6.2-1H126c3.2,0,5,0.3,6.2,1c0.5,0.3,1,1.2,1.3,1.7c0.2,0.7,0.3,1.3,0.2,2v10.7
		c0,0.7,0,1.5-0.3,2c-0.3,0.7-0.7,1.3-1.3,1.7c-1.2,0.7-3.2,1-6.2,1H103c-3,0-5-0.3-6.2-1c-0.5-0.3-1-1.2-1.3-1.7
		c-0.2-0.7-0.3-1.3-0.3-2v-10.7H95.3z M153.6,190.2v16.7h20.7v-16.7h7.3v15.5c0,0.7,0,1.5-0.3,2s-0.7,1.3-1.3,1.7
		c-1.2,0.7-3.2,1-6.2,1h-19.9c-3,0-5-0.3-6.2-1c-0.5-0.3-1.2-1-1.3-1.7c-0.3-0.7-0.3-1.5-0.3-2v-15.5H153.6L153.6,190.2z
		 M195.2,210.7v-20.4h26.9c1.8-0.2,3.7,0.2,5.3,1c0.5,0.3,1,0.7,1.3,1.3c0.3,0.5,0.3,1.2,0.3,1.7v4.5c0,0.5,0,1.2-0.3,1.7
		s-0.7,1-1.3,1.3c-1.7,0.7-3.5,1.2-5.3,1h-19.9v8L195.2,210.7z M218.9,193.8h-16.7v5.3h16.7c1,0,1.7,0,2.7-0.3
		c0.2-0.2,0.3-0.3,0.5-0.5s0.2-0.5,0.2-0.7v-2.2c0-0.2,0-0.5-0.2-0.7s-0.3-0.3-0.5-0.5C220.9,193.8,219.9,193.8,218.9,193.8
		L218.9,193.8z"/>
</g>
<g>
	<path class="st1" d="M311.9,106.8h-14v-9.3h38.2v9.3h-14v36.7H312v-36.7H311.9z"/>
	<path class="st1" d="M343.8,97.4h34.7v9h-24.7v9.3h21.7v9h-21.7v9.7h25v9h-35.1v-46H343.8z"/>
	<path class="st1" d="M387.9,97.4h38.4v46.1h-10.1v-36.9H398v36.9h-10.1V97.4L387.9,97.4z"/>
	<path class="st1" d="M476.4,97.4v46.1h-10.2v-36.9h-13.3v3.5c0,27.1-4.4,34-14.9,34c-1.6,0-4.1-0.3-5.3-0.6l0.7-8.4
		c0.5,0.1,0.9,0.1,1.6,0.1c5.5,0,8.6-3.5,8.6-28.3v-9.5L476.4,97.4L476.4,97.4z"/>
	<path class="st1" d="M485.4,120.5c0-13.1,10.3-23.8,24.5-23.8s24.4,10.6,24.4,23.8c0,13.1-10.3,23.8-24.5,23.8
		S485.4,133.7,485.4,120.5z M523.8,120.5c0-7.9-5.8-14.5-14-14.5s-13.8,6.5-13.8,14.5c0,7.9,5.8,14.5,14,14.5
		C518.1,135,523.8,128.5,523.8,120.5z"/>
	<path class="st1" d="M541.3,120.5c0-13.1,9.9-23.8,24-23.8c8.7,0,13.6,3.3,17.8,7.5l-6.1,7c-3.6-3.2-6.6-5.1-11.8-5.1
		c-7.8,0-13.4,6.5-13.4,14.5c0,7.9,5.5,14.5,13.4,14.5c5.3,0,8.5-2.1,12.1-5.4l6.4,6.9c-4.7,5.1-10,7.8-18.9,7.8
		C551.4,144.3,541.3,133.8,541.3,120.5z"/>
	<path class="st1" d="M602.6,106.8h-14v-9.3h38.2v9.3h-14v36.7h-10.1v-36.7H602.6z"/>
	<path class="st1" d="M634.6,97.4h18.8c11,0,17.6,6.5,17.6,16.1c0,10.7-8.3,16.2-18.6,16.2h-7.7v13.8h-10.1V97.4z M652.7,120.7
		c5.1,0,8-3,8-7.1c0-4.5-3.2-7-8.2-7h-7.8v14.1H652.7z"/>
	<path class="st1" d="M676.5,120.5c0-13.1,10.3-23.8,24.5-23.8s24.4,10.6,24.4,23.8c0,13.1-10.3,23.8-24.5,23.8
		S676.5,133.7,676.5,120.5z M714.9,120.5c0-7.9-5.8-14.5-14-14.5s-13.8,6.5-13.8,14.5c0,7.9,5.8,14.5,14,14.5
		C709.2,135,714.9,128.5,714.9,120.5z"/>
	<path class="st1" d="M774.1,143.5h-10v-30.2L744,143.5h-9.5V97.4h10v30.2l20.3-30.2h9.4v46.1H774.1L774.1,143.5z M743.4,83.9
		l5.9-1.1c0.9,2.7,2.4,4.4,5.2,4.4s4.3-1.7,5.2-4.4l5.9,1.1c-0.9,6.3-5,10-11.1,10S744.3,90.3,743.4,83.9z"/>
	<path class="st1" d="M785.2,97.4h38.4v46.1h-10.1v-36.9h-18.2v36.9h-10.1L785.2,97.4L785.2,97.4z"/>
	<path class="st1" d="M834.7,97.4h18.8c11,0,17.6,6.5,17.6,16.1c0,10.7-8.3,16.2-18.6,16.2h-7.7v13.8h-10.1V97.4z M852.8,120.7
		c5.1,0,8-3,8-7.1c0-4.5-3.2-7-8.2-7h-7.8v14.1H852.8z"/>
	<path class="st1" d="M876.6,120.5c0-13.1,10.3-23.8,24.5-23.8s24.4,10.6,24.4,23.8c0,13.1-10.3,23.8-24.5,23.8
		C886.8,144.3,876.6,133.7,876.6,120.5z M915,120.5c0-7.9-5.8-14.5-14-14.5s-13.8,6.5-13.8,14.5c0,7.9,5.8,14.5,14,14.5
		C909.3,135,915,128.5,915,120.5z"/>
	<path class="st1" d="M934.6,97.4h34.7v9h-24.7v9.3h21.7v9h-21.7v9.7h25v9h-35.1L934.6,97.4L934.6,97.4z"/>
	<path class="st1" d="M978.7,97.4h10.1v20.1l18.7-20.1h12.2l-18.8,19.5l19.6,26.5h-12.2L994,123.8l-5.3,5.5v14.1h-10.1L978.7,97.4
		L978.7,97.4z"/>
	<path class="st1" d="M1037.4,106.8h-14v-9.3h38.2v9.3h-14v36.7h-10.1L1037.4,106.8L1037.4,106.8z"/>
	<path class="st1" d="M1062,118.3h20.3v9.6H1062V118.3z"/>
	<path class="st1" d="M1089.1,120.5c0-13.1,9.9-23.8,24-23.8c8.7,0,13.6,3.3,17.8,7.5l-6.1,7c-3.6-3.2-6.6-5.1-11.8-5.1
		c-7.8,0-13.4,6.5-13.4,14.5c0,7.9,5.5,14.5,13.4,14.5c5.3,0,8.5-2.1,12.1-5.4l6.4,6.9c-4.7,5.1-10,7.8-18.9,7.8
		C1099.2,144.3,1089.1,133.8,1089.1,120.5z"/>
</g>
<text transform="matrix(1 0 0 1 1134.1233 143.4896)" class="st1 st2 st3"> </text>
<rect x="260.2" y="28.9" class="st1" width="7.7" height="176"/>
</svg>
