<?xml version="1.0" encoding="utf-8"?>
<!-- Generator: Adobe Illustrator 27.2.0, SVG Export Plug-In . SVG Version: 6.00 Build 0)  -->
<svg version="1.1" id="Layer_1" xmlns="http://www.w3.org/2000/svg" xmlns:xlink="http://www.w3.org/1999/xlink" x="0px" y="0px"
	 viewBox="0 0 91 91" style="enable-background:new 0 0 91 91;" xml:space="preserve">
<style type="text/css">
	.st0{fill:#FFFFFF;}
</style>
<g>
	<path class="st0" d="M19.7,88.6c-8.3,0-15-6.7-15-15s6.7-15,15-15s15,6.7,15,15S28,88.6,19.7,88.6z M19.7,67.1
		c-3.6,0-6.4,2.9-6.4,6.4c0,3.6,2.9,6.4,6.4,6.4s6.4-2.9,6.4-6.4C26.2,70,23.3,67.1,19.7,67.1z"/>
	<path class="st0" d="M58.4,88.6c-8.3,0-15-6.7-15-15s6.7-15,15-15s15,6.7,15,15S66.7,88.6,58.4,88.6z M58.4,67.1
		c-3.6,0-6.4,2.9-6.4,6.4c0,3.6,2.9,6.4,6.4,6.4s6.4-2.9,6.4-6.4C64.8,70,61.9,67.1,58.4,67.1z"/>
	<path class="st0" d="M73.4,62.8c-2.4,0-4.3-1.9-4.3-4.3v-2.1c0-3.6-2.9-6.5-6.5-6.5h0h-6.4c-1.4,0-2.7-0.7-3.5-1.8L32.6,19.9H21.9
		v25.8c0,2.4-1.9,4.3-4.3,4.3h-4.3c-2.4,0-4.3,1.9-4.3,4.3v4.3c0,2.4-1.9,4.3-4.3,4.3s-4.3-1.9-4.3-4.3v-4.3
		c0-7.1,5.8-12.9,12.9-12.9V15.6c0-2.4,1.9-4.3,4.3-4.3h17.2c1.4,0,2.7,0.7,3.5,1.8l20.2,28.2h4.3c8.3,0.1,15,6.8,15,15.1v2.1
		C77.7,60.9,75.8,62.8,73.4,62.8z"/>
	<path class="st0" d="M47.6,80H30.5c-2.4,0-4.3-1.9-4.3-4.3s1.9-4.3,4.3-4.3h17.2c2.4,0,4.3,1.9,4.3,4.3S50,80,47.6,80z"/>
	<path class="st0" d="M56.2,49.9H30.5c-2.4,0-4.3-1.9-4.3-4.3s1.9-4.3,4.3-4.3h25.8c2.4,0,4.3,1.9,4.3,4.3S58.6,49.9,56.2,49.9z"/>
	<polygon class="st0" points="56.2,45.6 56.2,45.6 39.1,19.9 39.1,45.6 	"/>
	<path class="st0" d="M51.9,24.2c-1.1,0-2.2-0.4-3-1.2c-1.7-1.7-1.7-4.4,0-6.1c0,0,0,0,0,0L61.8,4c1.7-1.7,4.4-1.7,6.1,0
		c1.7,1.7,1.7,4.4,0,6.1l0,0L55,22.9C54.2,23.7,53.1,24.2,51.9,24.2z"/>
	<path class="st0" d="M82,32.8c-1.3,0-2.5-0.6-3.3-1.6L61.5,9.7c-1.6-1.7-1.5-4.4,0.2-6.1c1.7-1.6,4.4-1.5,6.1,0.2
		C67.9,4,68,4.2,68.2,4.4l17.2,21.5c1.5,1.9,1.2,4.5-0.7,6C83.9,32.4,83,32.8,82,32.8z"/>
	<path class="st0" d="M86.3,49.9c-2.4,0-4.3-1.9-4.3-4.3V32.8H69.1c-2.4,0-4.3-1.9-4.3-4.3s1.9-4.3,4.3-4.3h17.2
		c2.4,0,4.3,1.9,4.3,4.3v17.2C90.6,48,88.6,49.9,86.3,49.9z"/>
	<polygon class="st0" points="86.3,45.6 69.1,28.5 86.3,28.5 	"/>
</g>
</svg>
