<?xml version="1.0" encoding="utf-8"?>
<!-- Generator: Adobe Illustrator 27.2.0, SVG Export Plug-In . SVG Version: 6.00 Build 0)  -->
<svg version="1.1" id="Layer_1" xmlns="http://www.w3.org/2000/svg" xmlns:xlink="http://www.w3.org/1999/xlink" x="0px" y="0px"
	 viewBox="0 0 91 91" style="enable-background:new 0 0 91 91;" xml:space="preserve">
<style type="text/css">
	.st0{fill:#FFFFFF;}
</style>
<g>
	<path class="st0" d="M0,13.7L31.9,0l27.3,13.6L87.8,1.4c1.2-0.5,2.5,0,3,1.2C90.9,2.8,91,3.1,91,3.5v73.9L59.2,91L31.9,77.3
		L3.2,89.6c-1.2,0.5-2.5,0-3-1.2C0.1,88.2,0,87.9,0,87.5V13.7z M63.7,79.1l18.2-7.8V13.8l-18.2,7.8V79.1z M54.6,78.6v-57l-18.2-9.1
		v57L54.6,78.6z M27.3,69.4V11.9L9.1,19.7v57.5C9.1,77.2,27.3,69.4,27.3,69.4z"/>
</g>
</svg>
