<?xml version="1.0" encoding="utf-8"?>
<!-- Generator: Adobe Illustrator 27.2.0, SVG Export Plug-In . SVG Version: 6.00 Build 0)  -->
<svg version="1.1" id="Layer_1" xmlns="http://www.w3.org/2000/svg" xmlns:xlink="http://www.w3.org/1999/xlink" x="0px" y="0px"
	 viewBox="0 0 91 91" style="enable-background:new 0 0 91 91;" xml:space="preserve">
<style type="text/css">
	.st0{fill:#FFFFFF;}
</style>
<g>
	<path class="st0" d="M1.6,69.4c0.6-1.5,0.9-3,1.7-4.3c2-3.3,5.1-5.1,9-5.1c21.7,0,43.4,0,65.1,0c5.9,0,10.7,4.9,10.7,10.8
		c0,5.9-4.8,10.8-10.7,10.8c-21.7,0-43.4,0-65.1,0c-5.2,0-9.6-3.8-10.5-9c0-0.2-0.1-0.3-0.2-0.5C1.6,71.2,1.6,70.3,1.6,69.4z
		 M34,74.3c2,0,3.6-1.5,3.6-3.5c0-2-1.5-3.6-3.5-3.6c-2,0-3.6,1.5-3.6,3.5C30.4,72.7,32,74.3,34,74.3z M55.6,67.2
		c-2,0-3.6,1.6-3.6,3.6c0,2,1.6,3.6,3.6,3.6c2,0,3.6-1.6,3.6-3.6C59.2,68.7,57.6,67.2,55.6,67.2z M16,74.3c2,0,3.6-1.6,3.6-3.6
		c0-2-1.6-3.6-3.6-3.6c-2,0-3.6,1.6-3.6,3.6C12.4,72.7,14,74.3,16,74.3z M73.6,74.3c2,0,3.6-1.6,3.6-3.6c0-2-1.6-3.6-3.6-3.6
		c-2,0-3.6,1.6-3.6,3.6C70,72.7,71.6,74.3,73.6,74.3z"/>
	<path class="st0" d="M44.8,56.3c-0.8,0-1.5,0-2.3,0c-2.7,0-4.5-1.6-4.7-4.4c-0.1-0.9-0.2-1.8-0.2-2.8c0-0.5-0.2-0.9-0.7-1.1
		c-0.3-0.1-0.6-0.4-0.9-0.5c-0.3-0.1-0.7-0.2-1-0.1c-0.9,0.3-1.7,0.8-2.6,1.2c-2.3,1.1-4.6,0.4-5.9-1.9c-0.9-1.5-1.8-3.1-2.6-4.6
		c-1.1-2.1-0.6-4.3,1.2-5.8c0.8-0.6,1.7-1.2,2.4-1.8c0.3-0.2,0.4-0.6,0.5-1c0.4-1.6-0.4-2.6-1.7-3.5c-1-0.6-1.9-1.5-2.5-2.4
		c-0.8-1.3-0.7-2.7,0-4c0.9-1.7,1.8-3.3,2.8-4.9c1.2-2,3.4-2.7,5.6-1.8c0.9,0.4,1.9,0.8,2.7,1.3c0.4,0.2,0.7,0.1,1.1-0.1
		c1.2-0.5,1.7-1.4,1.7-2.7c0-0.7,0.1-1.5,0.2-2.2c0.4-2.3,2-3.7,4.3-3.8c1.8-0.1,3.7-0.1,5.5,0c2.4,0.1,4.1,1.8,4.3,4.3
		c0.1,0.9,0.2,1.8,0.2,2.8c0,0.5,0.2,0.9,0.7,1.1c0.4,0.2,0.7,0.4,1,0.6c0.2,0.1,0.6,0.1,0.8,0c0.9-0.4,1.8-0.9,2.8-1.3
		c2.2-1,4.5-0.3,5.7,1.8c0.9,1.6,1.8,3.1,2.6,4.7c1.1,2.1,0.7,4.3-1.2,5.8c-0.8,0.6-1.5,1.2-2.3,1.7c-0.5,0.3-0.6,0.7-0.6,1.2
		c-0.2,1.5,0.4,2.5,1.7,3.2c0.6,0.3,1.1,0.7,1.6,1.2c1.6,1.4,2,3.5,1,5.4c-0.9,1.7-1.8,3.4-2.8,5.1c-1.2,2-3.4,2.6-5.5,1.7
		c-0.9-0.4-1.8-0.9-2.8-1.3c-0.3-0.1-0.7-0.1-1,0c-1.3,0.4-1.9,1.4-1.8,2.7c0.1,0.7-0.1,1.4-0.2,2.1c-0.4,2.4-2.1,3.9-4.5,3.9
		C46.4,56.4,45.6,56.3,44.8,56.3z M44.8,41.9c5,0,9-4,9-9c0-5-3.9-9-8.9-9c-5,0-9,3.9-9.1,8.9C35.8,37.8,39.8,41.9,44.8,41.9z"/>
</g>
</svg>
