<?xml version="1.0" encoding="utf-8"?>
<!-- Generator: Adobe Illustrator 27.2.0, SVG Export Plug-In . SVG Version: 6.00 Build 0)  -->
<svg version="1.1" id="Layer_1" xmlns="http://www.w3.org/2000/svg" xmlns:xlink="http://www.w3.org/1999/xlink" x="0px"
	y="0px" viewBox="0 0 91 91" style="enable-background:new 0 0 91 91;" xml:space="preserve">
	<style type="text/css">
		.st0 {
			fill: #FFFFFF;
		}
	</style>
	<g>
		<path class="st0" d="M8.4,11.1C8.4,5.3,13.2,0.5,19,0.5h42.3C67.2,0.5,72,5.3,72,11.1v52.3L58.8,76.8l-4.9-5
		c-3.1-3.1-8.1-3.2-11.2-0.1c-3.1,3.1-3.2,8.1-0.1,11.2l2.3,2.4H19c-5.8,0-10.6-4.7-10.6-10.6V11.1z M34.9,40.2
		c0,1.5,1.2,2.6,2.6,2.6h21.2c1.5,0,2.6-1.2,2.6-2.6s-1.2-2.6-2.6-2.6H37.6C36.1,37.6,34.9,38.8,34.9,40.2z M37.6,16.4
		c-1.5,0-2.6,1.2-2.6,2.6s1.2,2.6,2.6,2.6h21.2c1.5,0,2.6-1.2,2.6-2.6s-1.2-2.6-2.6-2.6H37.6z M34.9,61.4c0,1.5,1.2,2.6,2.6,2.6
		h21.2c1.5,0,2.6-1.2,2.6-2.6c0-1.5-1.2-2.6-2.6-2.6H37.6C36.1,58.7,34.9,59.9,34.9,61.4z M24.3,45.5c2.9,0,5.3-2.4,5.3-5.3
		c0-2.9-2.4-5.3-5.3-5.3S19,37.3,19,40.2C19,43.1,21.4,45.5,24.3,45.5z M29.6,19c0-2.9-2.4-5.3-5.3-5.3S19,16.1,19,19
		s2.4,5.3,5.3,5.3S29.6,22,29.6,19z M24.3,66.7c2.9,0,5.3-2.4,5.3-5.3c0-2.9-2.4-5.3-5.3-5.3S19,58.5,19,61.4
		C19,64.3,21.4,66.7,24.3,66.7z" />
		<path class="st0" d="M81.8,68.5c1-1,1-2.7,0-3.7c-1-1-2.7-1-3.7,0L58.7,84.3L50,75.4c-1-1-2.7-1.1-3.7,0c-1,1-1.1,2.7,0,3.7
		l10.2,10.4c1.2,1.3,3.3,1.3,4.5,0L81.8,68.5z" />
	</g>
</svg>